<svg xmlns="http://www.w3.org/2000/svg" version="1.1" xmlns:xlink="http://www.w3.org/1999/xlink"
    xmlns:svgjs="http://svgjs.dev/svgjs" width="2000" height="722" viewBox="0 0 2000 722">
    <g transform="matrix(1,0,0,1,-1.2121212121212466,-0.7140392966744571)">
        <svg viewBox="0 0 396 143" data-background-color="#f9f7f4"
            preserveAspectRatio="xMidYMid meet" height="722" width="2000"
            xmlns="http://www.w3.org/2000/svg" xmlns:xlink="http://www.w3.org/1999/xlink">
            <g id="tight-bounds" transform="matrix(1,0,0,1,0.2400000000000091,0.14142329560172584)">
                <svg viewBox="0 0 395.52 142.71715340879655" height="142.71715340879655"
                    width="395.52">
                    <g>
                        <svg viewBox="0 0 663.2003945779538 239.30540163267662"
                            height="142.71715340879655" width="395.52">
                            <g transform="matrix(1,0,0,1,267.6803945779538,12.469246470903755)">
                                <svg viewBox="0 0 395.52 214.3669086908691"
                                    height="214.3669086908691" width="395.52">
                                    <g id="textblocktransform">
                                        <svg viewBox="0 0 395.52 214.3669086908691"
                                            height="214.3669086908691" width="395.52" id="textblock">
                                            <g>
                                                <svg viewBox="0 0 395.52 214.3669086908691"
                                                    height="214.3669086908691" width="395.52">
                                                    <g transform="matrix(1,0,0,1,0,0)">
                                                        <svg width="395.52"
                                                            viewBox="0.700000000000002 -33.6 136.35000000000002 70.80000000000001"
                                                            height="214.3669086908691"
                                                            data-palette-color="#ff5a00">
                                                            <svg></svg>
                                                            <svg></svg>
                                                            <g class="wordmark-text-0"
                                                                data-fill-palette-color="primary"
                                                                id="text-0">
                                                                <path
                                                                    d="M21.35 0v-0.5h0.25c0.8 0 1.2-0.367 1.2-1.1v0c0-0.267-0.05-0.55-0.15-0.85v0l-4.5-12.15h-8.75l-4.35 11.95c-0.1 0.267-0.15 0.517-0.15 0.75v0c0 0.433 0.117 0.773 0.35 1.02 0.233 0.253 0.483 0.38 0.75 0.38v0h0.25v0.5h-5.55v-0.5h0.25c0.433 0 0.86-0.26 1.28-0.78 0.413-0.513 0.753-1.12 1.02-1.82v0l11.45-30.5 11.2 30.2c0.233 0.667 0.56 1.317 0.98 1.95 0.413 0.633 0.953 0.95 1.62 0.95v0h0.25v0.5zM13.75-26.75l-3.85 10.45h7.7zM45.65-15.75h-0.45c0-0.367-0.067-0.767-0.2-1.2-0.133-0.433-0.333-0.827-0.6-1.18-0.267-0.347-0.6-0.637-1-0.87-0.4-0.233-0.867-0.35-1.4-0.35v0h-4.4v16.1c0 0.267 0.033 0.55 0.1 0.85 0.067 0.3 0.177 0.59 0.33 0.87 0.147 0.287 0.313 0.53 0.5 0.73 0.18 0.2 0.403 0.3 0.67 0.3v0 0.5h-6.5v-0.5c0.267 0 0.5-0.1 0.7-0.3 0.2-0.2 0.373-0.433 0.52-0.7 0.153-0.267 0.263-0.56 0.33-0.88 0.067-0.313 0.1-0.603 0.1-0.87v0-16.1h-4.3c-0.533 0-1 0.117-1.4 0.35-0.4 0.233-0.723 0.523-0.97 0.87-0.253 0.353-0.447 0.747-0.58 1.18-0.133 0.433-0.2 0.833-0.2 1.2v0h-0.5v-5.25h19.25zM67.95-10.1h-17.35c0.133 1.167 0.417 2.273 0.85 3.32 0.433 1.053 1.01 1.98 1.73 2.78 0.713 0.8 1.587 1.44 2.62 1.92 1.033 0.487 2.233 0.73 3.6 0.73v0c0.733 0 1.51-0.11 2.33-0.33 0.813-0.213 1.57-0.52 2.27-0.92 0.7-0.4 1.327-0.893 1.88-1.48 0.547-0.58 0.92-1.237 1.12-1.97v0h0.45v3.75c-0.2 0-0.423 0.067-0.67 0.2-0.253 0.133-0.547 0.3-0.88 0.5v0c-0.667 0.4-1.567 0.823-2.7 1.27-1.133 0.453-2.633 0.68-4.5 0.68v0c-1.5 0-2.923-0.217-4.27-0.65-1.353-0.433-2.547-1.1-3.58-2-1.033-0.9-1.857-2.05-2.47-3.45-0.62-1.4-0.93-3.067-0.93-5v0c0-1.233 0.21-2.483 0.63-3.75 0.413-1.267 1.047-2.41 1.9-3.43 0.847-1.013 1.937-1.837 3.27-2.47 1.333-0.633 2.933-0.95 4.8-0.95v0c1.667 0 3.123 0.283 4.37 0.85 1.253 0.567 2.29 1.35 3.11 2.35 0.813 1 1.42 2.183 1.82 3.55 0.4 1.367 0.6 2.867 0.6 4.5zM57.85-19.7v0c-1.167 0-2.173 0.233-3.02 0.7-0.853 0.467-1.58 1.067-2.18 1.8-0.6 0.733-1.067 1.567-1.4 2.5-0.333 0.933-0.55 1.867-0.65 2.8v0h14.25c-0.033-0.967-0.207-1.917-0.52-2.85-0.32-0.933-0.763-1.767-1.33-2.5-0.567-0.733-1.283-1.327-2.15-1.78-0.867-0.447-1.867-0.67-3-0.67zM85.05 0v-0.5c0.233 0 0.5-0.1 0.8-0.3 0.3-0.2 0.45-0.483 0.45-0.85v0c0-0.067-0.027-0.21-0.08-0.43-0.047-0.213-0.137-0.453-0.27-0.72v0l-6.35-15-6.6 15.75c-0.567 1.367-1.683 2.05-3.35 2.05v0h-1.1v-0.5c0.467 0 0.977-0.243 1.53-0.73 0.547-0.48 0.987-1.053 1.32-1.72v0l6.8-15.9c0.167-0.433 0.25-0.783 0.25-1.05v0c0-0.4-0.267-0.6-0.8-0.6v0-0.5h4.05l7.7 18c0.233 0.5 0.573 1.04 1.02 1.62 0.453 0.587 0.88 0.88 1.28 0.88v0 0.5zM99.6-11.9h3.9c1.533 0 2.877 0.15 4.03 0.45 1.147 0.3 2.097 0.717 2.85 1.25 0.747 0.533 1.303 1.157 1.67 1.87 0.367 0.72 0.55 1.497 0.55 2.33v0c0 0.833-0.183 1.617-0.55 2.35-0.367 0.733-0.94 1.367-1.72 1.9-0.787 0.533-1.763 0.957-2.93 1.27-1.167 0.32-2.55 0.48-4.15 0.48v0h-8.55v-0.5c0.267 0 0.5-0.093 0.7-0.28 0.2-0.18 0.373-0.413 0.52-0.7 0.153-0.28 0.263-0.58 0.33-0.9 0.067-0.313 0.1-0.603 0.1-0.87v0-14.65c0-0.233-0.033-0.5-0.1-0.8-0.067-0.3-0.177-0.583-0.33-0.85-0.147-0.267-0.32-0.493-0.52-0.68-0.2-0.18-0.433-0.27-0.7-0.27v0-0.5h6.55v0.5c-0.5 0-0.9 0.307-1.2 0.92-0.3 0.62-0.45 1.18-0.45 1.68v0zM99.6-1.65h3.55c2.2 0 3.793-0.36 4.78-1.08 0.98-0.713 1.47-1.603 1.47-2.67v0c0-0.6-0.133-1.193-0.4-1.78-0.267-0.58-0.673-1.093-1.22-1.54-0.553-0.453-1.23-0.823-2.03-1.11-0.8-0.28-1.717-0.42-2.75-0.42v0h-3.4zM137.05-10.1h-17.35c0.133 1.167 0.417 2.273 0.85 3.32 0.433 1.053 1.01 1.98 1.73 2.78 0.713 0.8 1.587 1.44 2.62 1.92 1.033 0.487 2.233 0.73 3.6 0.73v0c0.733 0 1.507-0.11 2.32-0.33 0.82-0.213 1.58-0.52 2.28-0.92 0.7-0.4 1.323-0.893 1.87-1.48 0.553-0.58 0.93-1.237 1.13-1.97v0h0.45v3.75c-0.2 0-0.423 0.067-0.67 0.2-0.253 0.133-0.547 0.3-0.88 0.5v0c-0.667 0.4-1.567 0.823-2.7 1.27-1.133 0.453-2.633 0.68-4.5 0.68v0c-1.5 0-2.923-0.217-4.27-0.65-1.353-0.433-2.547-1.1-3.58-2-1.033-0.9-1.857-2.05-2.47-3.45-0.62-1.4-0.93-3.067-0.93-5v0c0-1.233 0.207-2.483 0.62-3.75 0.42-1.267 1.057-2.41 1.91-3.43 0.847-1.013 1.937-1.837 3.27-2.47 1.333-0.633 2.933-0.95 4.8-0.95v0c1.667 0 3.127 0.283 4.38 0.85 1.247 0.567 2.28 1.35 3.1 2.35 0.813 1 1.42 2.183 1.82 3.55 0.4 1.367 0.6 2.867 0.6 4.5zM126.95-19.7v0c-1.167 0-2.177 0.233-3.03 0.7-0.847 0.467-1.57 1.067-2.17 1.8-0.6 0.733-1.067 1.567-1.4 2.5-0.333 0.933-0.55 1.867-0.65 2.8v0h14.25c-0.033-0.967-0.207-1.917-0.52-2.85-0.32-0.933-0.763-1.767-1.33-2.5-0.567-0.733-1.283-1.327-2.15-1.78-0.867-0.447-1.867-0.67-3-0.67z"
                                                                    fill="#212529"
                                                                    fill-rule="nonzero"
                                                                    stroke="none" stroke-width="1"
                                                                    stroke-linecap="butt"
                                                                    stroke-linejoin="miter"
                                                                    stroke-miterlimit="10"
                                                                    stroke-dasharray=""
                                                                    stroke-dashoffset="0"
                                                                    font-family="none"
                                                                    font-weight="none"
                                                                    font-size="none"
                                                                    text-anchor="none"
                                                                    style="mix-blend-mode: normal"
                                                                    data-fill-palette-color="primary"
                                                                    opacity="1"></path>
                                                                <path transform="translate(0,36.95)"
                                                                    d="M17.65-32.5v-0.5h6.85v0.5h-0.25c-0.267 0-0.5 0.09-0.7 0.27-0.2 0.187-0.357 0.413-0.47 0.68-0.12 0.267-0.213 0.54-0.28 0.82-0.067 0.287-0.1 0.53-0.1 0.73v0 28.2h12v-27.95c0-0.233-0.023-0.51-0.07-0.83-0.053-0.313-0.13-0.603-0.23-0.87-0.1-0.267-0.24-0.5-0.42-0.7-0.187-0.2-0.413-0.317-0.68-0.35v0h-0.35v-0.5h6.85v0.5h-0.25c-0.3 0-0.54 0.1-0.72 0.3-0.187 0.2-0.347 0.433-0.48 0.7-0.133 0.267-0.223 0.567-0.27 0.9-0.053 0.333-0.08 0.617-0.08 0.85v0 26.65c0 0.233 0.043 0.5 0.13 0.8 0.08 0.3 0.187 0.583 0.32 0.85 0.133 0.267 0.293 0.49 0.48 0.67 0.18 0.187 0.387 0.28 0.62 0.28v0h0.25v0.5h-37.5v-0.5h0.25c0.233 0 0.45-0.093 0.65-0.28 0.2-0.18 0.367-0.403 0.5-0.67 0.133-0.267 0.233-0.55 0.3-0.85 0.067-0.3 0.1-0.567 0.1-0.8v0-26.65c0-0.233-0.023-0.517-0.07-0.85-0.053-0.333-0.147-0.633-0.28-0.9-0.133-0.267-0.29-0.5-0.47-0.7-0.187-0.2-0.43-0.3-0.73-0.3v0h-0.25v-0.5h6.85v0.5h-0.35c-0.267 0.033-0.49 0.15-0.67 0.35-0.187 0.2-0.33 0.433-0.43 0.7-0.1 0.267-0.173 0.557-0.22 0.87-0.053 0.32-0.08 0.597-0.08 0.83v0 27.95h12v-27.95c0-0.233-0.033-0.517-0.1-0.85-0.067-0.333-0.157-0.633-0.27-0.9-0.12-0.267-0.28-0.5-0.48-0.7-0.2-0.2-0.417-0.3-0.65-0.3v0zM64.7-10.2h-17.35c0.1 1.233 0.36 2.39 0.78 3.47 0.413 1.087 0.987 2.037 1.72 2.85 0.733 0.82 1.633 1.463 2.7 1.93 1.067 0.467 2.3 0.7 3.7 0.7v0c0.733 0 1.51-0.11 2.33-0.33 0.813-0.213 1.58-0.52 2.3-0.92 0.713-0.4 1.347-0.893 1.9-1.48 0.547-0.58 0.937-1.237 1.17-1.97v0h0.3v3.55c-0.233 0.033-0.483 0.117-0.75 0.25-0.267 0.133-0.55 0.283-0.85 0.45v0c-0.667 0.4-1.557 0.823-2.67 1.27-1.12 0.453-2.597 0.68-4.43 0.68v0c-1.467 0-2.873-0.217-4.22-0.65-1.353-0.433-2.537-1.1-3.55-2-1.02-0.9-1.837-2.043-2.45-3.43-0.62-1.38-0.93-3.02-0.93-4.92v0c0-1.233 0.21-2.477 0.63-3.73 0.413-1.247 1.047-2.37 1.9-3.37 0.847-1 1.93-1.817 3.25-2.45 1.313-0.633 2.887-0.95 4.72-0.95v0c1.6 0 3.01 0.283 4.23 0.85 1.213 0.567 2.23 1.35 3.05 2.35 0.813 1 1.43 2.173 1.85 3.52 0.413 1.353 0.637 2.797 0.67 4.33zM54.7-19.8v0c-1.2 0-2.24 0.233-3.12 0.7-0.887 0.467-1.63 1.073-2.23 1.82-0.6 0.753-1.067 1.613-1.4 2.58-0.333 0.967-0.533 1.933-0.6 2.9v0h14.45c-0.033-1-0.2-1.977-0.5-2.93-0.3-0.947-0.74-1.797-1.32-2.55-0.587-0.747-1.32-1.353-2.2-1.82-0.887-0.467-1.913-0.7-3.08-0.7zM58.85-24.3v0c0 0.467-0.15 0.85-0.45 1.15-0.3 0.3-0.667 0.45-1.1 0.45v0c-0.467 0-0.857-0.15-1.17-0.45-0.32-0.3-0.48-0.683-0.48-1.15v0c0-0.467 0.16-0.85 0.48-1.15 0.313-0.3 0.703-0.45 1.17-0.45v0c0.433 0 0.8 0.15 1.1 0.45 0.3 0.3 0.45 0.683 0.45 1.15zM53.1-24.3v0c0 0.467-0.15 0.85-0.45 1.15-0.3 0.3-0.683 0.45-1.15 0.45v0c-0.467 0-0.85-0.15-1.15-0.45-0.3-0.3-0.45-0.683-0.45-1.15v0c0-0.467 0.15-0.85 0.45-1.15 0.3-0.3 0.683-0.45 1.15-0.45v0c0.467 0 0.85 0.15 1.15 0.45 0.3 0.3 0.45 0.683 0.45 1.15zM82.1 0v-0.5c0.233 0 0.5-0.1 0.8-0.3 0.3-0.2 0.45-0.483 0.45-0.85v0c0-0.067-0.023-0.21-0.07-0.43-0.053-0.213-0.147-0.453-0.28-0.72v0l-6.35-15-6.6 15.75c-0.567 1.367-1.683 2.05-3.35 2.05v0h-1.1v-0.5c0.467 0 0.977-0.243 1.53-0.73 0.547-0.48 0.987-1.053 1.32-1.72v0l6.8-15.9c0.167-0.433 0.25-0.783 0.25-1.05v0c0-0.4-0.267-0.6-0.8-0.6v0-0.5h4.05l7.7 18c0.233 0.5 0.577 1.04 1.03 1.62 0.447 0.587 0.87 0.88 1.27 0.88v0 0.5zM104.45-8.4l2.45 4.5c0.2 0.367 0.467 0.75 0.8 1.15 0.333 0.4 0.71 0.767 1.13 1.1 0.413 0.333 0.837 0.607 1.27 0.82 0.433 0.22 0.85 0.33 1.25 0.33v0 0.5h-1.9c-1.533 0-2.717-0.317-3.55-0.95-0.833-0.633-1.483-1.383-1.95-2.25v0l-2.35-4.45c-0.367-0.7-0.983-1.307-1.85-1.82-0.867-0.52-1.783-0.78-2.75-0.78v0 7.1c0 0.267 0.027 0.55 0.08 0.85 0.047 0.3 0.137 0.583 0.27 0.85 0.133 0.267 0.3 0.49 0.5 0.67 0.2 0.187 0.433 0.28 0.7 0.28v0 0.5h-6.45v-0.5c0.233 0 0.46-0.093 0.68-0.28 0.213-0.18 0.387-0.403 0.52-0.67 0.133-0.267 0.233-0.55 0.3-0.85 0.067-0.3 0.1-0.583 0.1-0.85v0-14.7c0-0.233-0.033-0.51-0.1-0.83-0.067-0.313-0.157-0.603-0.27-0.87-0.12-0.267-0.28-0.493-0.48-0.68-0.2-0.18-0.45-0.27-0.75-0.27v0-0.5h6.4v0.5c-0.233 0-0.44 0.09-0.62 0.27-0.187 0.187-0.347 0.413-0.48 0.68-0.133 0.267-0.233 0.557-0.3 0.87-0.067 0.32-0.1 0.597-0.1 0.83v0 5.15c1.433-1.267 2.85-2.493 4.25-3.68 1.4-1.18 2.817-2.403 4.25-3.67v0c0-0.033 0.017-0.067 0.05-0.1 0.033-0.033 0.05-0.067 0.05-0.1v0c0-0.167-0.083-0.25-0.25-0.25v0-0.5h4.35v0.5c-0.167 0-0.367 0.05-0.6 0.15-0.233 0.1-0.467 0.217-0.7 0.35v0c-0.267 0.133-0.533 0.3-0.8 0.5v0c-1.5 1.267-3 2.557-4.5 3.87-1.5 1.32-3 2.613-4.5 3.88v0c1.433 0 2.61 0.267 3.53 0.8 0.913 0.533 1.687 1.383 2.32 2.55z"
                                                                    fill="#212529"
                                                                    fill-rule="nonzero"
                                                                    stroke="none" stroke-width="1"
                                                                    stroke-linecap="butt"
                                                                    stroke-linejoin="miter"
                                                                    stroke-miterlimit="10"
                                                                    stroke-dasharray=""
                                                                    stroke-dashoffset="0"
                                                                    font-family="none"
                                                                    font-weight="none"
                                                                    font-size="none"
                                                                    text-anchor="none"
                                                                    style="mix-blend-mode: normal"
                                                                    data-fill-palette-color="primary"
                                                                    opacity="1"></path>
                                                            </g>
                                                        </svg>
                                                    </g>
                                                </svg>
                                            </g>
                                        </svg>
                                    </g>
                                </svg>
                            </g>
                            <g>
                                <svg viewBox="0 0 244.43135999999998 239.30540163267662"
                                    height="239.30540163267662" width="244.43135999999998">
                                    <g>
                                        <svg xmlns="http://www.w3.org/2000/svg" xml:space="preserve"
                                            viewBox="12.833 13.539999999999988 69.334 67.88000000000001"
                                            x="0" y="0" height="239.30540163267662"
                                            width="244.43135999999998" class="icon-icon-0"
                                            data-fill-palette-color="accent" id="icon-0"><path d="M35.784 69.836q0.07 0 0.143-0.027 0.324 0.028 0.656 0.027c4.365 0 7.917-3.552 7.917-7.917 0-0.903-0.159-1.804-0.473-2.675a8 8 0 0 0-0.662-1.395c-0.193-0.75-0.065-1.43 0.382-2.02 0.628-0.83 1.848-1.374 3.254-1.48V80.92a0.5 0.5 0 0 0 1 0V54.352c1.405 0.105 2.625 0.65 3.252 1.479 0.447 0.59 0.575 1.269 0.382 2.019-0.265 0.44-0.486 0.909-0.662 1.396a7.9 7.9 0 0 0-0.473 2.674c0 4.365 3.552 7.917 7.917 7.917q0.324 0 0.64-0.026a0.5 0.5 0 0 0 0.159 0.026c11.282 0 22.951-9.229 22.951-24.674 0-14.928-14.825-31.623-34.667-31.623S12.833 30.234 12.833 45.162c0 15.443 11.669 24.674 22.951 24.674m12.217-55.284c19.017 0.279 33.166 16.281 33.166 30.61 0 14.743-11.049 23.584-21.788 23.673a0.5 0.5 0 0 0-0.246-0.036 7 7 0 0 1-0.716 0.037c-3.813 0-6.917-3.104-6.917-6.917 0-0.787 0.141-1.573 0.414-2.337 0.159-0.443 0.365-0.872 0.609-1.271a0.6 0.6 0 0 0 0.057-0.127c0.303-1.076 0.119-2.1-0.529-2.955-0.822-1.086-2.313-1.766-4.05-1.877z m-1 0v38.8c-1.736 0.111-3.229 0.791-4.052 1.877-0.648 0.855-0.832 1.879-0.529 2.955a0.5 0.5 0 0 0 0.056 0.127c0.245 0.399 0.451 0.828 0.61 1.271 0.274 0.764 0.414 1.55 0.414 2.337a6.926 6.926 0 0 1-7.633 6.88 0.43 0.43 0 0 0-0.219 0.037c-10.747-0.074-21.815-8.918-21.815-23.674 0-14.329 14.151-30.332 33.168-30.61" fill="#000000" data-fill-palette-color="accent"></path></svg>
                                    </g>
                                </svg>
                            </g>
                        </svg>
                    </g>
                    <defs></defs>
                </svg>
                <rect width="395.52" height="142.71715340879655" fill="none" stroke="none"
                    visibility="hidden"></rect>
            </g>
        </svg>
    </g>
</svg>